<?xml version="1.0" encoding="iso-8859-1"?>
<!-- Generator: Adobe Illustrator 19.0.0, SVG Export Plug-In . SVG Version: 6.00 Build 0)  -->
<svg version="1.1" id="Layer_1" xmlns="http://www.w3.org/2000/svg" xmlns:xlink="http://www.w3.org/1999/xlink" x="0px" y="0px"
	 viewBox="0 0 512 512" style="enable-background:new 0 0 512 512;" xml:space="preserve">
<path style="fill:#51B58B;" d="M418.034,53.923L418.034,53.923c-16.568,0-29.998,13.43-29.998,29.998v78.722
	c0,14.509-11.762,26.271-26.271,26.271H310.95V85.83c0-41.77-33.861-75.631-75.631-75.631l0,0c-41.77,0-75.631,33.861-75.631,75.631
	v230.62h-17.819c-13.102,0-23.723-10.621-23.723-23.723v-71.088c0-14.961-12.128-27.089-27.089-27.089l0,0
	c-14.961,0-27.089,12.128-27.089,27.089v94.812v15.227c0,21.512,17.439,38.951,38.951,38.951h15.227h41.542v131.172H310.95V248.91
	h77.086h16.862c23.822,0,43.133-19.311,43.133-43.133v-16.862V83.921C448.032,67.354,434.601,53.923,418.034,53.923z"/>
<path d="M418.034,43.724c-22.164,0-40.197,18.032-40.197,40.197v78.722c0,8.862-7.21,16.072-16.072,16.072h-40.615V85.83
	C321.149,38.503,282.646,0,235.32,0s-85.83,38.503-85.83,85.83v220.421h-7.62c-7.458,0-13.524-6.066-13.524-13.524v-71.088
	c0-20.561-16.727-37.288-37.288-37.288s-37.288,16.728-37.288,37.288v110.038c0,27.101,22.049,49.15,49.15,49.15h46.571v110.775
	h-35.889c-5.633,0-10.199,4.566-10.199,10.199S107.968,512,113.601,512h46.088H310.95h22.454c5.632,0,10.199-4.566,10.199-10.199
	s-4.567-10.199-10.199-10.199h-12.254V259.109h83.749c29.407,0,53.333-23.925,53.333-53.333V83.921
	C458.231,61.756,440.199,43.724,418.034,43.724z M102.919,360.43c-15.854,0-28.752-12.898-28.752-28.752V221.639
	c0-9.313,7.577-16.89,16.89-16.89s16.89,7.577,16.89,16.89v71.088c0,18.704,15.217,33.923,33.923,33.923h7.62v33.78H102.919z
	 M169.888,85.83c0-36.08,29.352-65.432,65.432-65.432c36.079,0,65.431,29.352,65.431,65.432v92.884h-17.707
	c-22.164,0-40.197,18.032-40.197,40.197c0,22.164,18.033,40.197,40.197,40.197h17.707v232.493H169.888V85.83z M437.832,205.776
	c0,18.16-14.774,32.934-32.934,32.934H283.044c-10.917,0-19.799-8.881-19.799-19.799s8.881-19.799,19.799-19.799h78.722
	c20.11,0,36.47-16.361,36.47-36.47V83.921c0-10.917,8.881-19.799,19.799-19.799s19.799,8.881,19.799,19.799L437.832,205.776
	L437.832,205.776z"/>
<path d="M202.231,289.525c-5.633,0-10.199,4.566-10.199,10.199v142.99c0,5.633,4.566,10.199,10.199,10.199
	c5.633,0,10.199-4.566,10.199-10.199v-142.99C212.43,294.091,207.864,289.525,202.231,289.525z"/>
<path d="M202.231,225.711c-5.633,0-10.199,4.566-10.199,10.199v17.726c0,5.633,4.566,10.199,10.199,10.199
	c5.633,0,10.199-4.566,10.199-10.199v-17.726C212.43,230.278,207.864,225.711,202.231,225.711z"/>
<path d="M245.519,104.738c0-5.633-4.566-10.199-10.199-10.199s-10.199,4.566-10.199,10.199v49.633
	c0,5.633,4.566,10.199,10.199,10.199s10.199-4.566,10.199-10.199V104.738z"/>
<path d="M235.32,75.94c5.633,0,10.199-4.566,10.199-10.199V51.56c0-5.633-4.566-10.199-10.199-10.199s-10.199,4.566-10.199,10.199
	v14.181C225.121,71.373,229.687,75.94,235.32,75.94z"/>
<path d="M267.664,398.99v14.181c0,5.633,4.567,10.199,10.199,10.199c5.632,0,10.199-4.566,10.199-10.199V398.99
	c0-5.633-4.567-10.199-10.199-10.199C272.231,388.791,267.664,393.357,267.664,398.99z"/>
<path d="M388.946,491.602h-15.363c-5.632,0-10.199,4.566-10.199,10.199S367.951,512,373.583,512h15.363
	c5.632,0,10.199-4.566,10.199-10.199S394.578,491.602,388.946,491.602z"/>
<g>
</g>
<g>
</g>
<g>
</g>
<g>
</g>
<g>
</g>
<g>
</g>
<g>
</g>
<g>
</g>
<g>
</g>
<g>
</g>
<g>
</g>
<g>
</g>
<g>
</g>
<g>
</g>
<g>
</g>
</svg>
